# xmcd
#
# Track frame offsets: 
#        150
#        15293
#        31733
#        51301
#        72191
#        98892
#        112390
#        132357
#        151280
#        165861
#        184806
#        197170
#
# Disc length: 3291 seconds
#
# Revision: 0
# Processed by: cddbd v1.5.2PL0 Copyright (c) Steve Scherf et al.
# Submitted via: ExactAudioCopy v0.99pb5
#
DISCID=9a0cd90c
DTITLE=The Gary Fletcher Band - Giant From The Blue
DYEAR=2011
DGENRE=Blues
TTITLE0=I Just Don't Know
TTITLE1=User Man
TTITLE2=It Take Love
TTITLE3=I'll Never Leave You
TTITLE4=It's Not My Call
TTITLE5=Stop Messing With My Life
TTITLE6=My Love Made You Wrong
TTITLE7=In Love With A Wish
TTITLE8=Can't Live With-Can't Live Without
TTITLE9=Can't Love Another
TTITLE10=What Have You Done
TTITLE11=That's My Way
EXTD=
EXTT0=
EXTT1=
EXTT2=
EXTT3=
EXTT4=
EXTT5=
EXTT6=
EXTT7=
EXTT8=
EXTT9=
EXTT10=
EXTT11=
PLAYORDER=
